<?xml version="1.0" encoding="UTF-8" standalone="no"?>
<svg width="184px" height="20px" viewBox="0 0 184 20" version="1.1" xmlns="http://www.w3.org/2000/svg" xmlns:xlink="http://www.w3.org/1999/xlink" xmlns:sketch="http://www.bohemiancoding.com/sketch/ns">
    <!-- Generator: Sketch 3.4 (15588) - http://www.bohemiancoding.com/sketch -->
    <title>CONTACT ME - Codementor</title>
    <desc>Codementor Badge For GitHub.</desc>
    <defs></defs>
    <g id="Page-1" stroke="none" stroke-width="1" fill="none" fill-rule="evenodd" sketch:type="MSPage">
        <g id="Badge-For-Github" sketch:type="MSLayerGroup">
            <g id="Group" sketch:type="MSShapeGroup">
                <path d="M9.5,0 L2.22898489,0 C1.00247329,0 0,0.992479891 0,2.21676588 L0,17.7832341 C0,19.0081969 0.997950529,20 2.22898489,20 L9.5,20 L93,20 L93,0 L9.5,0 Z" id="Rectangle-175" fill="#073648"></path>
                <path d="M93,0 L177.933333,0 L177.933333,20 L93,20 L93,0 Z M177.933333,0 L181.775446,0 C183.004033,0 184,0.99180311 184,2.21676588 L184,17.7832341 C184,19.0075201 182.998213,20 181.775446,20 L177.933333,20 L177.933333,0 Z" id="Rectangle-180" fill="#149290"></path>
                <path d="M20.5919008,10.2548476 C20.5919008,9.84856676 20.6620756,9.46445241 20.8024271,9.10249307 C20.9427787,8.74053374 21.1459161,8.42290072 21.4118454,8.14958449 C21.6777747,7.87626825 21.9991011,7.65835723 22.3758343,7.49584488 C22.7525675,7.33333252 23.1773093,7.25207756 23.6500726,7.25207756 C24.2853481,7.25207756 24.8264323,7.38873363 25.2733413,7.66204986 C25.7202502,7.93536609 26.0545036,8.29362659 26.2761113,8.73684211 L24.8245878,9.1800554 C24.6990101,8.96583457 24.5328067,8.80147795 24.3259728,8.68698061 C24.1191389,8.57248327 23.8901477,8.51523546 23.6389922,8.51523546 C23.4247714,8.51523546 23.2253274,8.55770964 23.0406543,8.64265928 C22.8559811,8.72760892 22.6953179,8.84579795 22.5586598,8.99722992 C22.4220017,9.14866188 22.3148929,9.33148554 22.2373302,9.54570637 C22.1597675,9.7599272 22.1209867,9.99630526 22.1209867,10.2548476 C22.1209867,10.51339 22.1616142,10.7497681 22.2428703,10.9639889 C22.3241265,11.1782098 22.433082,11.3628801 22.5697402,11.5180055 C22.7063983,11.673131 22.8670615,11.7931667 23.0517346,11.8781163 C23.2364077,11.963066 23.4321583,12.0055402 23.6389922,12.0055402 C23.9049215,12.0055402 24.1505331,11.9390588 24.3758343,11.8060942 C24.6011356,11.6731295 24.7581054,11.5106196 24.8467485,11.3185596 L26.298272,11.7617729 C26.098825,12.2049884 25.7701118,12.5669423 25.3121224,12.8476454 C24.8541331,13.1283486 24.3038154,13.2686981 23.6611529,13.2686981 C23.1883897,13.2686981 22.7636479,13.1874431 22.3869147,13.0249307 C22.0101815,12.8624184 21.6888551,12.6426607 21.4229257,12.365651 C21.1569964,12.0886413 20.9520123,11.7673148 20.8079673,11.401662 C20.6639223,11.0360093 20.5919008,10.6537416 20.5919008,10.2548476 L20.5919008,10.2548476 Z M29.9504167,13.2686981 C29.4776535,13.2686981 29.0529117,13.1874431 28.6761785,13.0249307 C28.2994453,12.8624184 27.9799656,12.6426607 27.7177297,12.365651 C27.4554939,12.0886413 27.2542032,11.7691616 27.1138516,11.4072022 C26.9735,11.0452429 26.9033253,10.6648219 26.9033253,10.265928 C26.9033253,9.85964709 26.9735,9.47553274 27.1138516,9.11357341 C27.2542032,8.75161407 27.4554939,8.43213435 27.7177297,8.15512465 C27.9799656,7.87811496 28.2994453,7.65835723 28.6761785,7.49584488 C29.0529117,7.33333252 29.4776535,7.25207756 29.9504167,7.25207756 C30.4231799,7.25207756 30.8460751,7.33333252 31.2191148,7.49584488 C31.5921545,7.65835723 31.9097875,7.87811496 32.1720234,8.15512465 C32.4342592,8.43213435 32.6355499,8.75161407 32.7759015,9.11357341 C32.9162531,9.47553274 32.9864278,9.85964709 32.9864278,10.265928 C32.9864278,10.6648219 32.9162531,11.0452429 32.7759015,11.4072022 C32.6355499,11.7691616 32.4361059,12.0886413 32.1775635,12.365651 C31.9190211,12.6426607 31.6013881,12.8624184 31.2246549,13.0249307 C30.8479218,13.1874431 30.4231799,13.2686981 29.9504167,13.2686981 L29.9504167,13.2686981 Z M28.4324112,10.265928 C28.4324112,10.5244704 28.4711919,10.7590017 28.5487547,10.9695291 C28.6263174,11.1800565 28.7334262,11.3628801 28.8700843,11.5180055 C29.0067424,11.673131 29.1674056,11.7931667 29.3520788,11.8781163 C29.5367519,11.963066 29.7361959,12.0055402 29.9504167,12.0055402 C30.1646375,12.0055402 30.3640815,11.963066 30.5487547,11.8781163 C30.7334278,11.7931667 30.894091,11.673131 31.0307491,11.5180055 C31.1674072,11.3628801 31.274516,11.1782098 31.3520788,10.9639889 C31.4296415,10.7497681 31.4684223,10.51339 31.4684223,10.2548476 C31.4684223,10.0036922 31.4296415,9.77100753 31.3520788,9.5567867 C31.274516,9.34256587 31.1674072,9.15789551 31.0307491,9.00277008 C30.894091,8.84764465 30.7334278,8.72760892 30.5487547,8.64265928 C30.3640815,8.55770964 30.1646375,8.51523546 29.9504167,8.51523546 C29.7361959,8.51523546 29.5367519,8.55955634 29.3520788,8.64819945 C29.1674056,8.73684255 29.0067424,8.85872499 28.8700843,9.01385042 C28.7334262,9.16897584 28.6263174,9.3536462 28.5487547,9.56786704 C28.4711919,9.78208787 28.4324112,10.0147725 28.4324112,10.265928 L28.4324112,10.265928 Z M36.5056085,13.2686981 C36.1067145,13.2686981 35.7373738,13.1911365 35.3975753,13.0360111 C35.0577767,12.8808857 34.7659975,12.666668 34.522229,12.3933518 C34.2784605,12.1200356 34.08825,11.8005558 33.9515919,11.434903 C33.8149338,11.0692502 33.7466057,10.6759024 33.7466057,10.2548476 C33.7466057,9.83379291 33.8112404,9.44229175 33.9405116,9.08033241 C34.0697827,8.71837307 34.248913,8.40074006 34.4779077,8.12742382 C34.7069024,7.85410759 34.9802145,7.63988997 35.2978523,7.48476454 C35.6154901,7.32963911 35.9626703,7.25207756 36.3394035,7.25207756 C36.7678452,7.25207756 37.1538062,7.35549296 37.4972983,7.56232687 C37.8407903,7.76916078 38.1085623,8.0387795 38.3006224,8.37119114 L38.3006224,5.06925208 L39.7853869,5.06925208 L39.7853869,11.4515235 C39.7853869,11.606649 39.8112408,11.7174512 39.8629492,11.7839335 C39.9146577,11.8504158 40.0032995,11.8873499 40.1288772,11.8947368 L40.1288772,13.1578947 C39.8703348,13.2096032 39.6598106,13.2354571 39.4972983,13.2354571 C39.231369,13.2354571 39.0134579,13.1689757 38.8435586,13.0360111 C38.6736594,12.9030464 38.5776308,12.7294563 38.55547,12.5152355 L38.522229,12.1495845 C38.3080082,12.5189307 38.0180757,12.797783 37.6524229,12.9861496 C37.2867701,13.1745162 36.9045025,13.2686981 36.5056085,13.2686981 L36.5056085,13.2686981 Z M36.8934201,12.0055402 C37.0337717,12.0055402 37.1778146,11.981533 37.3255531,11.933518 C37.4732916,11.885503 37.6099477,11.817175 37.7355254,11.7285319 C37.8611031,11.6398888 37.9737521,11.5364734 38.0734755,11.4182825 C38.173199,11.3000917 38.2489139,11.1708225 38.3006224,11.0304709 L38.3006224,9.64542936 C38.241527,9.48291701 38.1584253,9.33333402 38.0513149,9.1966759 C37.9442045,9.06001778 37.822322,8.94182875 37.6856639,8.84210526 C37.5490058,8.74238177 37.4049629,8.66297352 37.2535309,8.60387812 C37.102099,8.54478271 36.952516,8.51523546 36.8047775,8.51523546 C36.5831697,8.51523546 36.3781856,8.56324975 36.189819,8.65927978 C36.0014524,8.75530981 35.8407892,8.88642576 35.7078246,9.05263158 C35.5748599,9.2188374 35.4714445,9.40904787 35.3975753,9.6232687 C35.323706,9.83748953 35.2867719,10.059094 35.2867719,10.2880886 C35.2867719,10.5318572 35.3273994,10.757155 35.4086556,10.9639889 C35.4899118,11.1708228 35.600714,11.3517998 35.7410656,11.5069252 C35.8814172,11.6620506 36.0494672,11.7839331 36.2452207,11.8725762 C36.4409742,11.9612193 36.6570385,12.0055402 36.8934201,12.0055402 L36.8934201,12.0055402 Z M44.0580302,13.2686981 C43.5926539,13.2686981 43.1716055,13.1892898 42.7948723,13.0304709 C42.4181391,12.871652 42.0968127,12.6555877 41.8308834,12.3822715 C41.5649541,12.1089552 41.35997,11.7913222 41.215925,11.4293629 C41.0718799,11.0674035 40.9998585,10.6869826 40.9998585,10.2880886 C40.9998585,9.87442083 41.0700332,9.48476637 41.2103848,9.11911357 C41.3507364,8.75346078 41.5538738,8.43213435 41.8198031,8.15512465 C42.0857324,7.87811496 42.4089055,7.65835723 42.7893322,7.49584488 C43.1697588,7.33333252 43.5963473,7.25207756 44.0691106,7.25207756 C44.5418738,7.25207756 44.9647689,7.33333252 45.3378086,7.49584488 C45.7108483,7.65835723 46.0284814,7.87626825 46.2907172,8.14958449 C46.552953,8.42290072 46.752397,8.74053374 46.8890552,9.10249307 C47.0257133,9.46445241 47.0940413,9.84117994 47.0940413,10.232687 C47.0940413,10.328717 47.0921946,10.4210522 47.0885011,10.5096953 C47.0848077,10.5983384 47.0755742,10.6722065 47.0608003,10.7313019 L42.5732657,10.7313019 C42.5954265,10.9602966 42.6508276,11.163434 42.7394707,11.3407202 C42.8281138,11.5180064 42.9426094,11.6694361 43.082961,11.7950139 C43.2233125,11.9205916 43.3821291,12.0166202 43.5594153,12.0831025 C43.7367015,12.1495848 43.9213718,12.1828255 44.1134319,12.1828255 C44.4089089,12.1828255 44.6877611,12.110804 44.949997,11.966759 C45.2122328,11.822714 45.3913631,11.6325035 45.4873931,11.3961219 L46.7616313,11.7506925 C46.5474105,12.193908 46.2057703,12.5577086 45.7367006,12.8421053 C45.2676308,13.1265019 44.7080796,13.2686981 44.0580302,13.2686981 L44.0580302,13.2686981 Z M45.5649554,9.76731302 C45.5280208,9.33148443 45.3673576,8.98245745 45.082961,8.72022161 C44.7985644,8.45798576 44.4532308,8.32686981 44.0469499,8.32686981 C43.8475029,8.32686981 43.6609858,8.36195717 43.4873931,8.43213296 C43.3138004,8.50230875 43.160524,8.60018404 43.0275593,8.72576177 C42.8945947,8.8513395 42.7856391,9.0027692 42.7006895,9.1800554 C42.6157399,9.35734161 42.5658789,9.55309219 42.551105,9.76731302 L45.5649554,9.76731302 Z M57.1395378,13.1578947 L55.6547733,13.1578947 L55.6547733,9.90027701 C55.6547733,9.43490072 55.575365,9.09510726 55.4165461,8.88088643 C55.2577272,8.6666656 55.0379695,8.55955679 54.7572663,8.55955679 C54.4617893,8.55955679 54.1847838,8.67220571 53.9262414,8.89750693 C53.667699,9.12280814 53.4830287,9.41643402 53.3722248,9.77839335 L53.3722248,13.1578947 L51.8874602,13.1578947 L51.8874602,9.90027701 C51.8874602,9.43490072 51.808052,9.09510726 51.6492331,8.88088643 C51.4904142,8.6666656 51.2706565,8.55955679 50.9899533,8.55955679 C50.7018632,8.55955679 50.4267044,8.670359 50.1644686,8.89196676 C49.9022327,9.11357452 49.7157156,9.40535368 49.6049118,9.76731302 L49.6049118,13.1578947 L48.1201472,13.1578947 L48.1201472,7.35180055 L49.4608674,7.35180055 L49.4608674,8.4265928 C49.6750883,8.04985961 49.9687142,7.75992715 50.3417539,7.5567867 C50.7147936,7.35364626 51.1413821,7.25207756 51.6215323,7.25207756 C52.1090693,7.25207756 52.4857969,7.37026659 52.7517262,7.6066482 C53.0176555,7.84302981 53.1875522,8.13480898 53.2614215,8.48199446 C53.4978031,8.0831005 53.7969691,7.7783944 54.1589284,7.56786704 C54.5208877,7.35733967 54.9345493,7.25207756 55.3999256,7.25207756 C55.754498,7.25207756 56.0462772,7.31855889 56.2752719,7.45152355 C56.5042666,7.5844882 56.6815501,7.75807834 56.8071278,7.97229917 C56.9327056,8.18652 57.0195006,8.43028488 57.0675156,8.70360111 C57.1155307,8.97691734 57.1395378,9.25392288 57.1395378,9.53462604 L57.1395378,13.1578947 Z M61.2459761,13.2686981 C60.7805999,13.2686981 60.3595514,13.1892898 59.9828182,13.0304709 C59.6060851,12.871652 59.2847586,12.6555877 59.0188293,12.3822715 C58.7529,12.1089552 58.5479159,11.7913222 58.4038709,11.4293629 C58.2598258,11.0674035 58.1878044,10.6869826 58.1878044,10.2880886 C58.1878044,9.87442083 58.2579791,9.48476637 58.3983307,9.11911357 C58.5386823,8.75346078 58.7418197,8.43213435 59.007749,8.15512465 C59.2736783,7.87811496 59.5968514,7.65835723 59.9772781,7.49584488 C60.3577047,7.33333252 60.7842933,7.25207756 61.2570565,7.25207756 C61.7298197,7.25207756 62.1527148,7.33333252 62.5257545,7.49584488 C62.8987943,7.65835723 63.2164273,7.87626825 63.4786631,8.14958449 C63.740899,8.42290072 63.940343,8.74053374 64.0770011,9.10249307 C64.2136592,9.46445241 64.2819872,9.84117994 64.2819872,10.232687 C64.2819872,10.328717 64.2801405,10.4210522 64.2764471,10.5096953 C64.2727536,10.5983384 64.2635201,10.6722065 64.2487462,10.7313019 L59.7612116,10.7313019 C59.7833724,10.9602966 59.8387735,11.163434 59.9274166,11.3407202 C60.0160597,11.5180064 60.1305553,11.6694361 60.2709069,11.7950139 C60.4112585,11.9205916 60.570075,12.0166202 60.7473612,12.0831025 C60.9246474,12.1495848 61.1093177,12.1828255 61.3013778,12.1828255 C61.5968548,12.1828255 61.8757071,12.110804 62.1379429,11.966759 C62.4001787,11.822714 62.579309,11.6325035 62.675339,11.3961219 L63.9495773,11.7506925 C63.7353564,12.193908 63.3937163,12.5577086 62.9246465,12.8421053 C62.4555768,13.1265019 61.8960256,13.2686981 61.2459761,13.2686981 L61.2459761,13.2686981 Z M62.7529014,9.76731302 C62.7159667,9.33148443 62.5553035,8.98245745 62.2709069,8.72022161 C61.9865103,8.45798576 61.6411767,8.32686981 61.2348958,8.32686981 C61.0354488,8.32686981 60.8489318,8.36195717 60.675339,8.43213296 C60.5017463,8.50230875 60.3484699,8.60018404 60.2155052,8.72576177 C60.0825406,8.8513395 59.9735851,9.0027692 59.8886354,9.1800554 C59.8036858,9.35734161 59.7538248,9.55309219 59.7390509,9.76731302 L62.7529014,9.76731302 Z M70.704215,13.1578947 L69.2194505,13.1578947 L69.2194505,9.90027701 C69.2194505,9.43490072 69.1381955,9.09510726 68.9756832,8.88088643 C68.8131708,8.6666656 68.587873,8.55955679 68.2997829,8.55955679 C68.1520444,8.55955679 68.0006147,8.58910404 67.8454893,8.64819945 C67.6903638,8.70729485 67.5444743,8.79039651 67.4078161,8.89750693 C67.271158,9.00461734 67.1474289,9.13203989 67.036625,9.27977839 C66.9258211,9.4275169 66.8445662,9.59002681 66.7928577,9.76731302 L66.7928577,13.1578947 L65.3080931,13.1578947 L65.3080931,7.35180055 L66.6488134,7.35180055 L66.6488134,8.4265928 C66.8630342,8.05724654 67.1732804,7.76916078 67.5795613,7.56232687 C67.9858422,7.35549296 68.4438247,7.25207756 68.9535225,7.25207756 C69.3154818,7.25207756 69.6109544,7.31855889 69.8399491,7.45152355 C70.0689438,7.5844882 70.2462273,7.75807834 70.3718051,7.97229917 C70.4973828,8.18652 70.5841779,8.43028488 70.6321929,8.70360111 C70.6802079,8.97691734 70.704215,9.25392288 70.704215,9.53462604 L70.704215,13.1578947 Z M75.5419553,12.8587258 C75.3425083,12.9473689 75.0987434,13.0360106 74.8106534,13.1246537 C74.5225633,13.2132968 74.2197039,13.2576177 73.9020661,13.2576177 C73.6952322,13.2576177 73.5013283,13.2317639 73.3203487,13.1800554 C73.139369,13.1283469 72.9805525,13.0452453 72.8438944,12.9307479 C72.7072362,12.8162506 72.5982807,12.6685143 72.5170246,12.4875346 C72.4357684,12.306555 72.3951409,12.0867972 72.3951409,11.8282548 L72.3951409,8.49307479 L71.630598,8.49307479 L71.630598,7.35180055 L72.3951409,7.35180055 L72.3951409,5.46814404 L73.8799054,5.46814404 L73.8799054,7.35180055 L75.098742,7.35180055 L75.098742,8.49307479 L73.8799054,8.49307479 L73.8799054,11.3296399 C73.8799054,11.5364738 73.9334598,11.6823634 74.0405703,11.767313 C74.1476807,11.8522627 74.2787966,11.8947368 74.4339221,11.8947368 C74.5890475,11.8947368 74.7404772,11.868883 74.8882157,11.8171745 C75.0359542,11.765466 75.1541432,11.7211452 75.2427863,11.6842105 L75.5419553,12.8587258 Z M78.9724934,13.2686981 C78.4997301,13.2686981 78.0749883,13.1874431 77.6982551,13.0249307 C77.3215219,12.8624184 77.0020422,12.6426607 76.7398064,12.365651 C76.4775705,12.0886413 76.2762798,11.7691616 76.1359283,11.4072022 C75.9955767,11.0452429 75.9254019,10.6648219 75.9254019,10.265928 C75.9254019,9.85964709 75.9955767,9.47553274 76.1359283,9.11357341 C76.2762798,8.75161407 76.4775705,8.43213435 76.7398064,8.15512465 C77.0020422,7.87811496 77.3215219,7.65835723 77.6982551,7.49584488 C78.0749883,7.33333252 78.4997301,7.25207756 78.9724934,7.25207756 C79.4452566,7.25207756 79.8681517,7.33333252 80.2411914,7.49584488 C80.6142311,7.65835723 80.9318642,7.87811496 81.1941,8.15512465 C81.4563359,8.43213435 81.6576265,8.75161407 81.7979781,9.11357341 C81.9383297,9.47553274 82.0085044,9.85964709 82.0085044,10.265928 C82.0085044,10.6648219 81.9383297,11.0452429 81.7979781,11.4072022 C81.6576265,11.7691616 81.4581826,12.0886413 81.1996402,12.365651 C80.9410978,12.6426607 80.6234648,12.8624184 80.2467316,13.0249307 C79.8699984,13.1874431 79.4452566,13.2686981 78.9724934,13.2686981 L78.9724934,13.2686981 Z M77.4544878,10.265928 C77.4544878,10.5244704 77.4932686,10.7590017 77.5708313,10.9695291 C77.648394,11.1800565 77.7555028,11.3628801 77.892161,11.5180055 C78.0288191,11.673131 78.1894823,11.7931667 78.3741554,11.8781163 C78.5588285,11.963066 78.7582725,12.0055402 78.9724934,12.0055402 C79.1867142,12.0055402 79.3861582,11.963066 79.5708313,11.8781163 C79.7555044,11.7931667 79.9161677,11.673131 80.0528258,11.5180055 C80.1894839,11.3628801 80.2965927,11.1782098 80.3741554,10.9639889 C80.4517181,10.7497681 80.4904989,10.51339 80.4904989,10.2548476 C80.4904989,10.0036922 80.4517181,9.77100753 80.3741554,9.5567867 C80.2965927,9.34256587 80.1894839,9.15789551 80.0528258,9.00277008 C79.9161677,8.84764465 79.7555044,8.72760892 79.5708313,8.64265928 C79.3861582,8.55770964 79.1867142,8.51523546 78.9724934,8.51523546 C78.7582725,8.51523546 78.5588285,8.55955634 78.3741554,8.64819945 C78.1894823,8.73684255 78.0288191,8.85872499 77.892161,9.01385042 C77.7555028,9.16897584 77.648394,9.3536462 77.5708313,9.56786704 C77.4932686,9.78208787 77.4544878,10.0147725 77.4544878,10.265928 L77.4544878,10.265928 Z M86.5803167,8.63711911 C86.1297143,8.64450604 85.7271329,8.73130111 85.3725605,8.89750693 C85.0179881,9.06371274 84.763143,9.31301773 84.6080176,9.64542936 L84.6080176,13.1578947 L83.123253,13.1578947 L83.123253,7.35180055 L84.4861339,7.35180055 L84.4861339,8.59279778 C84.5895509,8.3933508 84.7114333,8.21422055 84.8517849,8.05540166 C84.9921365,7.89658277 85.1435662,7.75808 85.3060785,7.6398892 C85.4685909,7.52169839 85.6329475,7.43120992 85.7991533,7.36842105 C85.9653591,7.30563219 86.1260223,7.27423823 86.2811478,7.27423823 L86.4639732,7.27423823 C86.5046013,7.27423823 86.5433821,7.27793163 86.5803167,7.28531856 L86.5803167,8.63711911 Z" id="codementor" fill="#FFFFFF"></path>
                <path d="M106.187649,6.60591079 L106.187649,7.64306886 C105.856536,7.33467916 105.503516,7.10420189 105.12858,6.95163015 C104.753643,6.7990584 104.355177,6.72277367 103.93317,6.72277367 C103.102141,6.72277367 102.465893,6.97678559 102.024409,7.48481704 C101.582925,7.99284849 101.362186,8.72729189 101.362186,9.68816927 C101.362186,10.6458004 101.582925,11.3786208 102.024409,11.8866522 C102.465893,12.3946837 103.102141,12.6486956 103.93317,12.6486956 C104.355177,12.6486956 104.753643,12.5724109 105.12858,12.4198391 C105.503516,12.2672674 105.856536,12.0367901 106.187649,11.7284004 L106.187649,12.7558199 C105.843551,12.9895468 105.47917,13.1648394 105.094495,13.2817029 C104.709819,13.3985663 104.303238,13.4569972 103.874738,13.4569972 C102.774274,13.4569972 101.90755,13.1202082 101.274539,12.4466202 C100.641529,11.7730322 100.325028,10.8535577 100.325028,9.68816927 C100.325028,8.51953462 100.641529,7.5984371 101.274539,6.92484907 C101.90755,6.25126104 102.774274,5.91447208 103.874738,5.91447208 C104.30973,5.91447208 104.719558,5.97209139 105.104233,6.08733176 C105.488909,6.20257212 105.850044,6.37543007 106.187649,6.60591079 L106.187649,6.60591079 Z M110.768458,6.7130351 C110.054292,6.7130351 109.487026,6.97922011 109.066642,7.51159812 C108.646258,8.04397612 108.43607,8.76949259 108.43607,9.68816927 C108.43607,10.6035998 108.646258,11.3274931 109.066642,11.8598711 C109.487026,12.3922492 110.054292,12.6584342 110.768458,12.6584342 C111.482624,12.6584342 112.048267,12.3922492 112.465404,11.8598711 C112.882542,11.3274931 113.091108,10.6035998 113.091108,9.68816927 C113.091108,8.76949259 112.882542,8.04397612 112.465404,7.51159812 C112.048267,6.97922011 111.482624,6.7130351 110.768458,6.7130351 L110.768458,6.7130351 Z M110.768458,5.91447208 C111.787767,5.91447208 112.602553,6.25613028 113.21284,6.93945693 C113.823127,7.62278358 114.128266,8.53901187 114.128266,9.68816927 C114.128266,10.8340805 113.823127,11.7486857 113.21284,12.4320123 C112.602553,13.115339 111.787767,13.4569972 110.768458,13.4569972 C109.745903,13.4569972 108.928682,13.1161505 108.316772,12.434447 C107.704862,11.7527434 107.398912,10.8373267 107.398912,9.68816927 C107.398912,8.53901187 107.704862,7.62278358 108.316772,6.93945693 C108.928682,6.25613028 109.745903,5.91447208 110.768458,5.91447208 L110.768458,5.91447208 Z M115.777764,6.04594282 L117.10221,6.04594282 L120.325677,12.1276819 L120.325677,6.04594282 L121.280058,6.04594282 L121.280058,13.3157879 L119.955612,13.3157879 L116.732144,7.23404877 L116.732144,13.3157879 L115.777764,13.3157879 L115.777764,6.04594282 Z M122.340372,6.04594282 L128.490281,6.04594282 L128.490281,6.87372156 L125.909559,6.87372156 L125.909559,13.3157879 L124.921094,13.3157879 L124.921094,6.87372156 L122.340372,6.87372156 L122.340372,6.04594282 Z M131.206153,7.01493087 L129.871968,10.6328109 L132.545207,10.6328109 L131.206153,7.01493087 Z M130.651054,6.04594282 L131.766121,6.04594282 L134.536745,13.3157879 L133.514195,13.3157879 L132.851972,11.4508511 L129.574942,11.4508511 L128.912719,13.3157879 L127.875561,13.3157879 L130.651054,6.04594282 Z M140.977621,6.60591079 L140.977621,7.64306886 C140.646508,7.33467916 140.293488,7.10420189 139.918551,6.95163015 C139.543614,6.7990584 139.145148,6.72277367 138.723141,6.72277367 C137.892112,6.72277367 137.255865,6.97678559 136.814381,7.48481704 C136.372897,7.99284849 136.152158,8.72729189 136.152158,9.68816927 C136.152158,10.6458004 136.372897,11.3786208 136.814381,11.8866522 C137.255865,12.3946837 137.892112,12.6486956 138.723141,12.6486956 C139.145148,12.6486956 139.543614,12.5724109 139.918551,12.4198391 C140.293488,12.2672674 140.646508,12.0367901 140.977621,11.7284004 L140.977621,12.7558199 C140.633523,12.9895468 140.269142,13.1648394 139.884466,13.2817029 C139.49979,13.3985663 139.093209,13.4569972 138.66471,13.4569972 C137.564245,13.4569972 136.697521,13.1202082 136.064511,12.4466202 C135.4315,11.7730322 135.115,10.8535577 135.115,9.68816927 C135.115,8.51953462 135.4315,7.5984371 136.064511,6.92484907 C136.697521,6.25126104 137.564245,5.91447208 138.66471,5.91447208 C139.099701,5.91447208 139.509529,5.97209139 139.894205,6.08733176 C140.27888,6.20257212 140.640015,6.37543007 140.977621,6.60591079 L140.977621,6.60591079 Z M141.599699,6.04594282 L147.749608,6.04594282 L147.749608,6.87372156 L145.168886,6.87372156 L145.168886,13.3157879 L144.180421,13.3157879 L144.180421,6.87372156 L141.599699,6.87372156 L141.599699,6.04594282 Z M152.090632,6.04594282 L153.556287,6.04594282 L155.411485,10.9931381 L157.276422,6.04594282 L158.742077,6.04594282 L158.742077,13.3157879 L157.782828,13.3157879 L157.782828,6.932153 L155.908152,11.9183026 L154.919687,11.9183026 L153.045012,6.932153 L153.045012,13.3157879 L152.090632,13.3157879 L152.090632,6.04594282 Z M160.805465,6.04594282 L165.402071,6.04594282 L165.402071,6.87372156 L161.78906,6.87372156 L161.78906,9.02594628 L165.251123,9.02594628 L165.251123,9.85372502 L161.78906,9.85372502 L161.78906,12.4880091 L165.489718,12.4880091 L165.489718,13.3157879 L160.805465,13.3157879 L160.805465,6.04594282 Z" id="CONTACT-ME" fill="#FFFFFF"></path>
            </g>
            <g id="Rectangle-3-+-Rectangle-4-+-Oval-3" transform="translate(4.433735, 5.540166)" sketch:type="MSShapeGroup">
                <rect id="Rectangle-3" stroke="#FFFFFF" stroke-width="1.10803324" x="1.10843373" y="0" width="9.97590361" height="6.64819945" rx="1.10803324"></rect>
                <rect id="Rectangle-4" fill="#FFFFFF" x="0" y="7.75623269" width="12.1927711" height="1.10803324"></rect>
                <ellipse id="Oval-3" fill="#FFFFFF" cx="6.09638554" cy="3.32409972" rx="1.26277261" ry="1.25437725"></ellipse>
            </g>
            <g id="arrowhead5" transform="translate(171.807229, 6.592794)" fill="#FFFFFF" sketch:type="MSShapeGroup">
                <path d="M0.922242635,0.477005281 C0.815075154,0.395383368 0.68828107,0.354572412 0.54154885,0.354572412 C0.394816631,0.354572412 0.267918703,0.395383368 0.160751222,0.477005281 C0.0535837405,0.558627193 0,0.655276395 0,0.766952887 L0,6.5405959 C0,6.6522724 0.0535837405,6.74900069 0.160751222,6.83054351 C0.268022547,6.91216542 0.394920475,6.95305547 0.54154885,6.95305547 C0.688177226,6.95305547 0.815075154,6.91216542 0.922242635,6.83054351 L4.71256536,3.943722 C4.81973285,3.86217918 4.87342043,3.76545089 4.87342043,3.6537744 C4.87342043,3.5420979 4.81973285,3.4454487 4.71256536,3.36382679 L0.922242635,0.477005281 Z" id="Shape"></path>
            </g>
        </g>
    </g>
</svg>